<svg id="fe5d7811-5cab-413f-a613-0ebfb23cae34" data-name="Capa 1" xmlns="http://www.w3.org/2000/svg" viewBox="0 0 5801 3175.21"><defs><style>.b4efdfb4-17a7-4e33-8eae-9f59fb655a50,.fe6813c0-18d9-447d-8e38-c35dfaeb0bac{fill:#00a99d;}.a1f8e7fc-3bd9-4ad7-9d2f-f27541c19006{fill:#666;opacity:0.65;}.a266961b-ed29-47e1-8277-74d6419978ec,.b189f03c-6d47-406a-a8a8-343bc03c111e{fill:#333;}.a89ec6c7-bc9d-4a2c-89e8-661ccd462ef4{font-size:60px;}.a266961b-ed29-47e1-8277-74d6419978ec,.a84d3339-a945-4a31-a2d1-1a2b985f0223,.a89ec6c7-bc9d-4a2c-89e8-661ccd462ef4,.af75b539-8cbb-4017-b514-b97698e4e785,.b15f5a93-66ab-4e62-b56f-062d4e159732,.e3ee9347-00f8-4586-8745-fd21b48ad435,.e845e29c-1748-4c6d-acad-074bb52edd9d,.f4528da7-2402-4b07-b531-c09243474431,.fa07b160-1854-46c3-bd3c-b4f8293632d8{font-family:MyriadPro-Regular, Myriad Pro;}.b83c97c3-f2bb-4c28-a95d-229cd5a3cc04{letter-spacing:-0.03em;}.b1d274ec-971d-44ab-b9ab-13433cc4a10d{fill:red;}.a900648c-f53d-44d6-bc7d-2e7db9e53b71{letter-spacing:0.01em;}.a82a9668-e3c0-425c-b293-d31fef9f550b{letter-spacing:-0.03em;}.bb3122b8-1f03-4a71-a7f1-fcfff63373a8{letter-spacing:0.02em;}.a41c4e06-30f0-4e59-8195-e069eb4a8d8b{fill:#4d4d4d;}.aada3eb7-2087-419b-828f-e715143e76ac{fill:#b3b3b3;}.e6a5017c-92a1-4730-9ec5-f940abfd43c5{fill:#8cc63f;}.a266961b-ed29-47e1-8277-74d6419978ec{font-size:47px;}.f5fad05b-ef3e-458d-8074-20bfcf09d2ed{letter-spacing:-0.02em;}.b32564be-afb4-46d3-bbf0-2aeba542615b{letter-spacing:-0.03em;}.fa07b160-1854-46c3-bd3c-b4f8293632d8{font-size:110px;}.eb923761-3e7b-4391-b8c7-b717f30511e0{letter-spacing:-0.03em;}.b8651bb1-1a6e-49d3-9f54-999dc41115df{letter-spacing:-0.01em;}.b9c3e9ae-2cce-4d32-b373-36d8439795e1{letter-spacing:0em;}.b15f5a93-66ab-4e62-b56f-062d4e159732{font-size:48px;}.a5bee516-43b7-4b58-b012-352142ad8d59{letter-spacing:0em;}.bb7940a1-c85f-4d4d-ba1b-4a12abcccef4{letter-spacing:0em;}.f59bfac8-658c-4d54-b35b-655f292664d5{letter-spacing:-0.01em;}.e5f96204-8ac6-487d-9cfe-4597645beb9e{fill:#ff0;stroke-width:3px;}.e5f96204-8ac6-487d-9cfe-4597645beb9e,.fe6813c0-18d9-447d-8e38-c35dfaeb0bac{stroke:#000;stroke-miterlimit:10;}.fe6813c0-18d9-447d-8e38-c35dfaeb0bac{stroke-width:5px;}.a0e1ae5e-1ba9-44ef-9657-7f67e39d2512{letter-spacing:-0.07em;}.bf03f6d5-2878-4e03-a30b-43e09340b459{letter-spacing:0em;}.a633977b-a4a8-4e6a-a2b5-cc00838942f3{letter-spacing:-0.01em;}.af75b539-8cbb-4017-b514-b97698e4e785{font-size:71.72px;}.a8f0a6b8-6f6f-417b-bea2-fae1fddb4731{letter-spacing:-0.01em;}.adbf85d0-6adf-4a8b-be21-78fbf518e2f9{letter-spacing:-0.01em;}.acb6a3c3-11b0-41bf-aac6-28854e7e5aa5{letter-spacing:-0.03em;}.b4f4b10c-42a3-4639-95cf-fb298b0b0591{fill:#22b573;}.e3ee9347-00f8-4586-8745-fd21b48ad435,.f4528da7-2402-4b07-b531-c09243474431{font-size:24px;}.e53eb8d2-2dec-4fff-ae07-1ae209c94d49{letter-spacing:-0.01em;}.ea69f669-c2bc-41f6-b019-6f984237ea32{letter-spacing:-0.01em;}.b21865f2-c6a0-4544-8a9a-18f4763ac63d{letter-spacing:0em;}.a84d3339-a945-4a31-a2d1-1a2b985f0223{font-size:36px;}.abca629b-1391-4c91-ba32-b2d6197a5292{letter-spacing:-0.07em;}.eeba350e-bfc7-4959-ab20-b89d23daa1e9{letter-spacing:0em;}.ef217066-792b-49ec-8fbd-0c2c0e080849{letter-spacing:-0.01em;}.a46cbf28-ae65-4838-96c3-bf39f1ab4e94{letter-spacing:0em;}.a77d38bd-7bbd-4fa1-b877-d4faf80fb2d9{letter-spacing:-0.02em;}.e3ee9347-00f8-4586-8745-fd21b48ad435{fill:#d9e021;}.b0daac1f-ca64-437f-8cd5-c7cfb46addfc{letter-spacing:0em;}.eb4a3a28-12c7-4b5a-9943-6d95b60606bc{letter-spacing:-0.01em;}.b90690bd-6aff-4976-84df-f83786caf9cb{letter-spacing:-0.03em;}.a5f664ba-486f-46c7-917c-b84c3e12b9ce{letter-spacing:0em;}.b62e86ae-004d-40b7-9065-bed970a7e93d{letter-spacing:-0.01em;}.e4310c2d-60dd-44e8-9967-442acb6b72c5{letter-spacing:-0.01em;}.f208c1ef-4367-4fbd-8c3c-dae0f93dd365{letter-spacing:0em;}.a7f909d8-9274-4b3c-9a12-6bc14fc60f15{letter-spacing:-0.01em;}.e037ac66-92c6-4efd-a8a6-8749b5487e0f{letter-spacing:0.01em;}.b5a20bc2-bff5-4f9b-af96-e5923b15efec{letter-spacing:0em;}.efc08f34-74be-4103-bf62-80181e893b1f{letter-spacing:-0.01em;}.e5b00239-4c63-49bd-b97d-0370fe10f53f{letter-spacing:0.02em;}.ae2f2fde-fd24-41a6-a4ee-d459d6e8b3f2{letter-spacing:0em;}.a31f0d96-ea94-4f29-9506-c3a840396f4b{letter-spacing:0em;}.edc47865-1070-4f74-abef-0f2b1af2ef10{letter-spacing:-0.05em;}.ab34c1a6-6904-4f14-8fea-aba6fdabaa83{letter-spacing:0em;}.fea94ebb-2830-4d64-a3ea-417ba360c56b{letter-spacing:0.01em;}.e845e29c-1748-4c6d-acad-074bb52edd9d{font-size:48.6px;}.e29fe1c1-4413-4d22-8a41-28d5501d8352{letter-spacing:-0.03em;}.a06f0f17-96a3-4715-b6da-8926d1bf611b{letter-spacing:-0.02em;}.ee63ffc9-07d0-4df2-b147-e5b426473c69{letter-spacing:-0.03em;}.a6cc5c68-744c-45e8-b1ef-f27f8cf501c6{letter-spacing:-0.01em;}</style></defs><rect class="b4efdfb4-17a7-4e33-8eae-9f59fb655a50" x="3270" y="1096" width="591" height="75"/><rect class="a1f8e7fc-3bd9-4ad7-9d2f-f27541c19006" x="3881" width="1920" height="1100"/><rect class="b4efdfb4-17a7-4e33-8eae-9f59fb655a50" x="682.67" y="503.17" width="555" height="139" rx="69.5"/><rect class="b4efdfb4-17a7-4e33-8eae-9f59fb655a50" x="683.5" y="661.34" width="555" height="139" rx="69.5"/><circle class="b189f03c-6d47-406a-a8a8-343bc03c111e" cx="1780" cy="101" r="61"/><circle class="b189f03c-6d47-406a-a8a8-343bc03c111e" cx="5673" cy="1184" r="61"/><text class="a89ec6c7-bc9d-4a2c-89e8-661ccd462ef4" transform="translate(875.78 590.28)">JUGAR</text><text class="a89ec6c7-bc9d-4a2c-89e8-661ccd462ef4" transform="translate(835.99 748.45)">CRÉDI<tspan class="b83c97c3-f2bb-4c28-a95d-229cd5a3cc04" x="150.9" y="0">T</tspan><tspan x="179.1" y="0">OS</tspan></text><polyline class="b1d274ec-971d-44ab-b9ab-13433cc4a10d" points="148.86 115 96 81.35 148.86 51"/><rect class="b1d274ec-971d-44ab-b9ab-13433cc4a10d" x="138.55" y="76.12" width="84.45" height="14.35"/><polyline class="b1d274ec-971d-44ab-b9ab-13433cc4a10d" points="3966.86 1203 3914 1169.35 3966.86 1139"/><rect class="b1d274ec-971d-44ab-b9ab-13433cc4a10d" x="3956.55" y="1164.12" width="84.45" height="14.35"/><rect class="b4efdfb4-17a7-4e33-8eae-9f59fb655a50" x="2563.67" y="484.17" width="555" height="139" rx="69.5"/><rect class="b4efdfb4-17a7-4e33-8eae-9f59fb655a50" x="2564.5" y="642.34" width="555" height="139" rx="69.5"/><circle class="b189f03c-6d47-406a-a8a8-343bc03c111e" cx="3661" cy="82" r="61"/><text class="a89ec6c7-bc9d-4a2c-89e8-661ccd462ef4" transform="translate(2756.78 571.28)">JUGAR</text><text class="a89ec6c7-bc9d-4a2c-89e8-661ccd462ef4" transform="translate(2716.99 729.45)">CRÉDI<tspan class="b83c97c3-f2bb-4c28-a95d-229cd5a3cc04" x="150.9" y="0">T</tspan><tspan x="179.1" y="0">OS</tspan></text><polyline class="b1d274ec-971d-44ab-b9ab-13433cc4a10d" points="2029.86 99 1977 65.35 2029.86 35"/><rect class="b1d274ec-971d-44ab-b9ab-13433cc4a10d" x="2019.55" y="57.12" width="84.45" height="14.35"/><rect class="a1f8e7fc-3bd9-4ad7-9d2f-f27541c19006" x="1941" width="1920" height="1100"/><rect class="b4efdfb4-17a7-4e33-8eae-9f59fb655a50" x="3059" width="802" height="1080"/><text class="a89ec6c7-bc9d-4a2c-89e8-661ccd462ef4" transform="translate(3120.78 456.28)"><tspan class="a900648c-f53d-44d6-bc7d-2e7db9e53b71">S</tspan><tspan x="29.94" y="0">onido</tspan></text><text class="a89ec6c7-bc9d-4a2c-89e8-661ccd462ef4" transform="translate(3119.78 572.28)">Idioma</text><text class="a89ec6c7-bc9d-4a2c-89e8-661ccd462ef4" transform="translate(3327.11 845.28)">TU<tspan class="a82a9668-e3c0-425c-b293-d31fef9f550b" x="68.64" y="0">T</tspan><tspan x="96.84" y="0">ORIAL</tspan></text><text class="a89ec6c7-bc9d-4a2c-89e8-661ccd462ef4" transform="translate(3353.31 162.28)"><tspan class="bb3122b8-1f03-4a71-a7f1-fcfff63373a8">A</tspan><tspan x="37.86" y="0">JUSTES</tspan></text><rect class="a41c4e06-30f0-4e59-8195-e069eb4a8d8b" x="3351" y="429" width="411" height="22" rx="11"/><circle class="aada3eb7-2087-419b-828f-e715143e76ac" cx="3353" cy="440" r="26"/><rect class="aada3eb7-2087-419b-828f-e715143e76ac" x="3351" y="521" width="360" height="58"/><rect class="e6a5017c-92a1-4730-9ec5-f940abfd43c5" x="4197" y="163" width="1288" height="774"/><polyline class="a41c4e06-30f0-4e59-8195-e069eb4a8d8b" points="3690.86 533.12 3669.38 566.88 3650 533.12"/><text class="a266961b-ed29-47e1-8277-74d6419978ec" transform="translate(3370.78 567.28)">Español</text><rect class="b4efdfb4-17a7-4e33-8eae-9f59fb655a50" x="4561.67" y="322.17" width="555" height="139" rx="69.5"/><rect class="b4efdfb4-17a7-4e33-8eae-9f59fb655a50" x="4562.5" y="480.34" width="555" height="139" rx="69.5"/><text class="a89ec6c7-bc9d-4a2c-89e8-661ccd462ef4" transform="translate(4687.28 410.28)"><tspan class="f5fad05b-ef3e-458d-8074-20bfcf09d2ed">C</tspan><tspan x="33.54" y="0">ONTIN</tspan><tspan class="b32564be-afb4-46d3-bbf0-2aeba542615b" x="198" y="0">U</tspan><tspan x="234.78" y="0">AR</tspan></text><text class="a89ec6c7-bc9d-4a2c-89e8-661ccd462ef4" transform="translate(4715.95 567.45)">REINICIAR</text><rect class="b4efdfb4-17a7-4e33-8eae-9f59fb655a50" x="4563" y="638" width="555" height="139" rx="69.5"/><text class="a89ec6c7-bc9d-4a2c-89e8-661ccd462ef4" transform="translate(4769.88 725.11)">SALIR</text><rect class="a1f8e7fc-3bd9-4ad7-9d2f-f27541c19006" y="1080" width="1921" height="1100"/><rect class="e6a5017c-92a1-4730-9ec5-f940abfd43c5" x="316" y="1243" width="1288" height="774"/><rect class="b4efdfb4-17a7-4e33-8eae-9f59fb655a50" x="401" y="1640" width="555" height="139" rx="69.5"/><rect class="b4efdfb4-17a7-4e33-8eae-9f59fb655a50" x="963" y="1640" width="555" height="139" rx="69.5"/><text class="a89ec6c7-bc9d-4a2c-89e8-661ccd462ef4" transform="translate(467.48 1728.11)">SIGUIENTE NIVEL</text><text class="a89ec6c7-bc9d-4a2c-89e8-661ccd462ef4" transform="translate(1116.45 1727.11)">REINICIAR</text><rect class="b4efdfb4-17a7-4e33-8eae-9f59fb655a50" x="681.5" y="1806" width="555" height="139" rx="69.5"/><text class="a89ec6c7-bc9d-4a2c-89e8-661ccd462ef4" transform="translate(888.38 1893.11)">SALIR</text><text class="fa07b160-1854-46c3-bd3c-b4f8293632d8" transform="translate(645.95 1501.43)">PUNT<tspan class="eb923761-3e7b-4391-b8c7-b717f30511e0" x="256.74" y="0">U</tspan><tspan class="b8651bb1-1a6e-49d3-9f54-999dc41115df" x="324.17" y="0">A</tspan><tspan class="b9c3e9ae-2cce-4d32-b373-36d8439795e1" x="389.84" y="0">CIÓN</tspan></text><text class="b15f5a93-66ab-4e62-b56f-062d4e159732" transform="translate(1998.91 1180.7)"><tspan class="a5bee516-43b7-4b58-b012-352142ad8d59">R</tspan><tspan class="bb7940a1-c85f-4d4d-ba1b-4a12abcccef4" x="25.97" y="0">ON</tspan><tspan class="f59bfac8-658c-4d54-b35b-655f292664d5" x="90.62" y="0">D</tspan><tspan x="121.92" y="0">A 3</tspan></text><text class="b15f5a93-66ab-4e62-b56f-062d4e159732" transform="translate(3598.91 1153.7)">400</text><rect x="2555.64" y="1291.64" width="688.72" height="688.72" transform="translate(2007.22 -1571.44) rotate(45)"/><rect x="335.66" y="2496.66" width="524.67" height="524.67" transform="translate(2127.06 385.24) rotate(45)"/><path class="b1d274ec-971d-44ab-b9ab-13433cc4a10d" d="M3344.54,1135.08c7.53-12.67-11.28-27.32-20.69-7.91-3.35-16.54-29-9.41-20.7,7.91,20.61,20.68,20.7,20.7,20.7,20.7Z" transform="translate(1)"/><path class="b4efdfb4-17a7-4e33-8eae-9f59fb655a50" d="M2825,1490.4c24.74-41.68-37.12-89.87-68.1-26-11-54.4-95.36-30.95-68.11,26,67.83,68,68.11,68.1,68.11,68.1Z" transform="translate(1)"/><path class="b1d274ec-971d-44ab-b9ab-13433cc4a10d" d="M3397.54,1136.08c7.53-12.67-11.28-27.32-20.69-7.91-3.35-16.54-29-9.41-20.7,7.91,20.61,20.68,20.7,20.7,20.7,20.7Z" transform="translate(1)"/><path class="b1d274ec-971d-44ab-b9ab-13433cc4a10d" d="M3450.54,1136.08c7.53-12.67-11.28-27.32-20.69-7.91-3.35-16.54-29-9.41-20.7,7.91,20.61,20.68,20.7,20.7,20.7,20.7Z" transform="translate(1)"/><path class="b1d274ec-971d-44ab-b9ab-13433cc4a10d" d="M3503.54,1136.08c7.53-12.67-11.28-27.32-20.69-7.91-3.35-16.54-29-9.41-20.7,7.91,20.61,20.68,20.7,20.7,20.7,20.7Z" transform="translate(1)"/><ellipse class="e5f96204-8ac6-487d-9cfe-4597645beb9e" cx="3706.78" cy="1143.06" rx="29.47" ry="13.94"/><ellipse class="e5f96204-8ac6-487d-9cfe-4597645beb9e" cx="3742.22" cy="1139.88" rx="29.47" ry="13.94"/><ellipse class="e5f96204-8ac6-487d-9cfe-4597645beb9e" cx="3719.92" cy="1125.94" rx="29.47" ry="13.94"/><rect class="fe6813c0-18d9-447d-8e38-c35dfaeb0bac" x="1941.5" y="2034.5" width="338" height="150.5"/><text class="b15f5a93-66ab-4e62-b56f-062d4e159732" transform="translate(2042.15 2079.7)"><tspan class="a0e1ae5e-1ba9-44ef-9657-7f67e39d2512">T</tspan><tspan x="20.45" y="0">o</tspan><tspan class="bf03f6d5-2878-4e03-a30b-43e09340b459" x="46.8" y="0">r</tspan><tspan class="a633977b-a4a8-4e6a-a2b5-cc00838942f3" x="62.69" y="0">r</tspan><tspan x="77.9" y="0">e 1</tspan></text><rect class="fe6813c0-18d9-447d-8e38-c35dfaeb0bac" x="2287.5" y="2034.5" width="338" height="150.5"/><text class="b15f5a93-66ab-4e62-b56f-062d4e159732" transform="translate(2388.15 2079.7)"><tspan class="a0e1ae5e-1ba9-44ef-9657-7f67e39d2512">T</tspan><tspan x="20.45" y="0">o</tspan><tspan class="bf03f6d5-2878-4e03-a30b-43e09340b459" x="46.8" y="0">r</tspan><tspan class="a633977b-a4a8-4e6a-a2b5-cc00838942f3" x="62.69" y="0">r</tspan><tspan x="77.9" y="0">e 2</tspan></text><rect class="fe6813c0-18d9-447d-8e38-c35dfaeb0bac" x="4026" y="1319.95" width="505" height="816.55"/><text class="af75b539-8cbb-4017-b514-b97698e4e785" transform="translate(4138.23 1417.48)"><tspan class="a8f0a6b8-6f6f-417b-bea2-fae1fddb4731">L</tspan><tspan x="32.85" y="0">e</tspan><tspan class="adbf85d0-6adf-4a8b-be21-78fbf518e2f9" x="68.77" y="0">c</tspan><tspan x="100.47" y="0">ción 1</tspan></text><text class="af75b539-8cbb-4017-b514-b97698e4e785" transform="translate(4691.72 1200.48)">TU<tspan class="acb6a3c3-11b0-41bf-aac6-28854e7e5aa5" x="82.04" y="0">T</tspan><tspan x="115.75" y="0">ORIAL</tspan></text><circle class="b189f03c-6d47-406a-a8a8-343bc03c111e" cx="1807" cy="2284" r="61"/><polyline class="b1d274ec-971d-44ab-b9ab-13433cc4a10d" points="100.86 2303 48 2269.35 100.86 2239"/><rect class="b1d274ec-971d-44ab-b9ab-13433cc4a10d" x="90.55" y="2264.12" width="84.45" height="14.35"/><polyline class="b4f4b10c-42a3-4639-95cf-fb298b0b0591" points="79.86 2791 27 2757.35 79.86 2727"/><rect class="b4f4b10c-42a3-4639-95cf-fb298b0b0591" x="69.55" y="2752.12" width="84.45" height="14.35"/><polyline class="b4efdfb4-17a7-4e33-8eae-9f59fb655a50" points="1818.14 2727 1871 2760.65 1818.14 2791"/><rect class="b4efdfb4-17a7-4e33-8eae-9f59fb655a50" x="1743" y="2751.53" width="84.45" height="14.35" transform="translate(3571.45 5517.41) rotate(180)"/><text class="af75b539-8cbb-4017-b514-b97698e4e785" transform="translate(838.94 2309.48)">NIVELES</text><rect class="fe6813c0-18d9-447d-8e38-c35dfaeb0bac" x="3177.5" y="2034.5" width="338" height="150.5"/><text class="b15f5a93-66ab-4e62-b56f-062d4e159732" transform="translate(3278.15 2079.7)"><tspan class="a0e1ae5e-1ba9-44ef-9657-7f67e39d2512">T</tspan><tspan x="20.45" y="0">o</tspan><tspan class="bf03f6d5-2878-4e03-a30b-43e09340b459" x="46.8" y="0">r</tspan><tspan class="a633977b-a4a8-4e6a-a2b5-cc00838942f3" x="62.69" y="0">r</tspan><tspan x="77.9" y="0">e 3</tspan></text><rect class="fe6813c0-18d9-447d-8e38-c35dfaeb0bac" x="3523.5" y="2034.5" width="338" height="150.5"/><text class="b15f5a93-66ab-4e62-b56f-062d4e159732" transform="translate(3624.15 2079.7)"><tspan class="a0e1ae5e-1ba9-44ef-9657-7f67e39d2512">T</tspan><tspan x="20.45" y="0">o</tspan><tspan class="bf03f6d5-2878-4e03-a30b-43e09340b459" x="46.8" y="0">r</tspan><tspan class="a633977b-a4a8-4e6a-a2b5-cc00838942f3" x="62.69" y="0">r</tspan><tspan x="77.9" y="0">e 4</tspan></text><rect class="b4efdfb4-17a7-4e33-8eae-9f59fb655a50" x="2569" y="1117" width="379" height="379"/><text class="f4528da7-2402-4b07-b531-c09243474431" transform="translate(2601.57 1462.61)">eliminar</text><text class="f4528da7-2402-4b07-b531-c09243474431" transform="translate(2722.57 1462.61)"><tspan class="e53eb8d2-2dec-4fff-ae07-1ae209c94d49">r</tspan><tspan x="7.61" y="0">epa</tspan><tspan class="ea69f669-c2bc-41f6-b019-6f984237ea32" x="44.86" y="0">r</tspan><tspan x="52.58" y="0">ar</tspan></text><text class="f4528da7-2402-4b07-b531-c09243474431" transform="translate(2841.57 1462.61)">mejo<tspan class="ea69f669-c2bc-41f6-b019-6f984237ea32" x="51.05" y="0">r</tspan><tspan class="b21865f2-c6a0-4544-8a9a-18f4763ac63d" x="58.78" y="0">ar</tspan></text><text class="a84d3339-a945-4a31-a2d1-1a2b985f0223" transform="translate(2698.57 1153.61)"><tspan class="abca629b-1391-4c91-ba32-b2d6197a5292">T</tspan><tspan x="15.34" y="0">o</tspan><tspan class="eeba350e-bfc7-4959-ab20-b89d23daa1e9" x="35.1" y="0">r</tspan><tspan class="ef217066-792b-49ec-8fbd-0c2c0e080849" x="47.02" y="0">r</tspan><tspan class="a46cbf28-ae65-4838-96c3-bf39f1ab4e94" x="58.43" y="0">e x</tspan></text><text class="f4528da7-2402-4b07-b531-c09243474431" transform="translate(2601.57 1198.61)"><tspan class="a77d38bd-7bbd-4fa1-b877-d4faf80fb2d9">V</tspan><tspan x="13.01" y="0">ida</tspan></text><text class="f4528da7-2402-4b07-b531-c09243474431" transform="translate(2734.57 1200.61)">80/100</text><text class="e3ee9347-00f8-4586-8745-fd21b48ad435" transform="translate(2871.57 1198.61)">+10</text><text class="e3ee9347-00f8-4586-8745-fd21b48ad435" transform="translate(2872.57 1253.61)">+5</text><text class="e3ee9347-00f8-4586-8745-fd21b48ad435" transform="translate(2872.57 1314.61)">+3</text><text class="e3ee9347-00f8-4586-8745-fd21b48ad435" transform="translate(2872.57 1384.61)">+6</text><text class="f4528da7-2402-4b07-b531-c09243474431" transform="translate(2749.57 1253.61)">20</text><text class="f4528da7-2402-4b07-b531-c09243474431" transform="translate(2749.57 1314.61)">30</text><text class="f4528da7-2402-4b07-b531-c09243474431" transform="translate(2750.57 1384.61)">60</text><text class="f4528da7-2402-4b07-b531-c09243474431" transform="translate(2601.57 1253.61)">Daño</text><text class="f4528da7-2402-4b07-b531-c09243474431" transform="translate(2604.57 1314.61)"><tspan class="b0daac1f-ca64-437f-8cd5-c7cfb46addfc">A</tspan><tspan x="14.62" y="0">lcan</tspan><tspan class="eb4a3a28-12c7-4b5a-9943-6d95b60606bc" x="55.92" y="0">c</tspan><tspan class="b21865f2-c6a0-4544-8a9a-18f4763ac63d" x="66.53" y="0">e</tspan></text><text class="f4528da7-2402-4b07-b531-c09243474431" transform="translate(2603.57 1372.61)"><tspan class="b90690bd-6aff-4976-84df-f83786caf9cb">V</tspan><tspan x="12.6" y="0">elocidad</tspan><tspan x="0" y="28.8">de </tspan><tspan class="a5f664ba-486f-46c7-917c-b84c3e12b9ce" x="30.65" y="28.8">a</tspan><tspan class="b21865f2-c6a0-4544-8a9a-18f4763ac63d" x="42.12" y="28.8">taque</tspan></text><rect x="4123.5" y="1776" width="310" height="310"/><text class="f4528da7-2402-4b07-b531-c09243474431" transform="translate(4071.74 1519.43)"><tspan class="b62e86ae-004d-40b7-9065-bed970a7e93d">L</tspan><tspan x="10.99" y="0">o</tspan><tspan class="e4310c2d-60dd-44e8-9967-442acb6b72c5" x="24.17" y="0">r</tspan><tspan class="b21865f2-c6a0-4544-8a9a-18f4763ac63d" x="31.78" y="0">em ipsum dolor sit ame</tspan><tspan class="f208c1ef-4367-4fbd-8c3c-dae0f93dd365" x="266.25" y="0">t</tspan><tspan x="274.13" y="0">, </tspan><tspan class="a7f909d8-9274-4b3c-9a12-6bc14fc60f15" x="284.18" y="0">c</tspan><tspan x="294.79" y="0">onse</tspan><tspan class="e037ac66-92c6-4efd-a8a6-8749b5487e0f" x="342.81" y="0">c</tspan><tspan class="a7f909d8-9274-4b3c-9a12-6bc14fc60f15" x="353.88" y="0">t</tspan><tspan class="b21865f2-c6a0-4544-8a9a-18f4763ac63d" x="361.67" y="0">etur </tspan><tspan x="0" y="28.8">adipiscing eli</tspan><tspan class="b0daac1f-ca64-437f-8cd5-c7cfb46addfc" x="130.99" y="28.8">t</tspan><tspan x="138.86" y="28.8">. Nullam pelle</tspan><tspan class="b5a20bc2-bff5-4f9b-af96-e5923b15efec" x="274.96" y="28.8">n</tspan><tspan class="a7f909d8-9274-4b3c-9a12-6bc14fc60f15" x="288.19" y="28.8">t</tspan><tspan class="b21865f2-c6a0-4544-8a9a-18f4763ac63d" x="295.99" y="28.8">esque ut </tspan><tspan x="0" y="57.6">ma</tspan><tspan class="eb4a3a28-12c7-4b5a-9943-6d95b60606bc" x="31.58" y="57.6">g</tspan><tspan x="44.86" y="57.6">na </tspan><tspan class="e4310c2d-60dd-44e8-9967-442acb6b72c5" x="74.83" y="57.6">v</tspan><tspan class="b21865f2-c6a0-4544-8a9a-18f4763ac63d" x="86.13" y="57.6">el finibu</tspan><tspan class="efc08f34-74be-4103-bf62-80181e893b1f" x="167.28" y="57.6">s</tspan><tspan x="176.52" y="57.6">. </tspan><tspan class="bf03f6d5-2878-4e03-a30b-43e09340b459" x="186.57" y="57.6">D</tspan><tspan class="b21865f2-c6a0-4544-8a9a-18f4763ac63d" x="202.65" y="57.6">onec semper </tspan><tspan class="eb4a3a28-12c7-4b5a-9943-6d95b60606bc" x="337.17" y="57.6">c</tspan><tspan class="b21865f2-c6a0-4544-8a9a-18f4763ac63d" x="347.78" y="57.6">ommodo </tspan><tspan x="0" y="86.4">o</tspan><tspan class="e53eb8d2-2dec-4fff-ae07-1ae209c94d49" x="13.18" y="86.4">r</tspan><tspan x="20.78" y="86.4">ci nec po</tspan><tspan class="e5b00239-4c63-49bd-b97d-0370fe10f53f" x="110.25" y="86.4">r</tspan><tspan x="118.68" y="86.4">ta. </tspan><tspan class="ae2f2fde-fd24-41a6-a4ee-d459d6e8b3f2" x="148.25" y="86.4">U</tspan><tspan class="a31f0d96-ea94-4f29-9506-c3a840396f4b" x="163.87" y="86.4">t lao</tspan><tspan class="e53eb8d2-2dec-4fff-ae07-1ae209c94d49" x="207.31" y="86.4">r</tspan><tspan x="214.92" y="86.4">eet dui </tspan><tspan class="e4310c2d-60dd-44e8-9967-442acb6b72c5" x="289.46" y="86.4">v</tspan><tspan x="300.76" y="86.4">el ipsum </tspan><tspan x="0" y="115.2">ult</tspan><tspan class="ae2f2fde-fd24-41a6-a4ee-d459d6e8b3f2" x="26.83" y="115.2">r</tspan><tspan x="34.78" y="115.2">i</tspan><tspan class="eb4a3a28-12c7-4b5a-9943-6d95b60606bc" x="40.39" y="115.2">c</tspan><tspan class="b21865f2-c6a0-4544-8a9a-18f4763ac63d" x="51" y="115.2">e</tspan><tspan class="efc08f34-74be-4103-bf62-80181e893b1f" x="63.02" y="115.2">s</tspan><tspan x="72.26" y="115.2">, ut pha</tspan><tspan class="e53eb8d2-2dec-4fff-ae07-1ae209c94d49" x="147.12" y="115.2">r</tspan><tspan x="154.73" y="115.2">et</tspan><tspan class="ea69f669-c2bc-41f6-b019-6f984237ea32" x="174.69" y="115.2">r</tspan><tspan x="182.42" y="115.2">a le</tspan><tspan class="e037ac66-92c6-4efd-a8a6-8749b5487e0f" x="216.76" y="115.2">c</tspan><tspan class="b21865f2-c6a0-4544-8a9a-18f4763ac63d" x="227.83" y="115.2">tus </tspan><tspan class="eb4a3a28-12c7-4b5a-9943-6d95b60606bc" x="263.59" y="115.2">t</tspan><tspan x="271.39" y="115.2">empo</tspan><tspan class="edc47865-1070-4f74-abef-0f2b1af2ef10" x="330.26" y="115.2">r</tspan><tspan x="336.83" y="115.2">. Class </tspan><tspan x="0" y="144">ap</tspan><tspan class="eb4a3a28-12c7-4b5a-9943-6d95b60606bc" x="25.22" y="144">t</tspan><tspan x="33.02" y="144">e</tspan><tspan class="b5a20bc2-bff5-4f9b-af96-e5923b15efec" x="45.05" y="144">n</tspan><tspan x="58.27" y="144">t taciti sociosqu ad li</tspan><tspan class="a7f909d8-9274-4b3c-9a12-6bc14fc60f15" x="260.85" y="144">t</tspan><tspan x="268.65" y="144">o</tspan><tspan class="ab34c1a6-6904-4f14-8fea-aba6fdabaa83" x="281.83" y="144">r</tspan><tspan x="289.56" y="144">a </tspan><tspan class="a7f909d8-9274-4b3c-9a12-6bc14fc60f15" x="306.21" y="144">t</tspan><tspan class="b21865f2-c6a0-4544-8a9a-18f4763ac63d" x="314.01" y="144">o</tspan><tspan class="e4310c2d-60dd-44e8-9967-442acb6b72c5" x="327.19" y="144">r</tspan><tspan x="334.79" y="144">que</tspan><tspan class="b5a20bc2-bff5-4f9b-af96-e5923b15efec" x="373.55" y="144">n</tspan><tspan class="b21865f2-c6a0-4544-8a9a-18f4763ac63d" x="386.78" y="144">t per </tspan><tspan class="a7f909d8-9274-4b3c-9a12-6bc14fc60f15" x="0" y="172.8">c</tspan><tspan x="10.61" y="172.8">onubia nost</tspan><tspan class="ab34c1a6-6904-4f14-8fea-aba6fdabaa83" x="130.2" y="172.8">r</tspan><tspan class="a31f0d96-ea94-4f29-9506-c3a840396f4b" x="137.93" y="172.8">a, per in</tspan><tspan class="eb4a3a28-12c7-4b5a-9943-6d95b60606bc" x="217.1" y="172.8">c</tspan><tspan class="b21865f2-c6a0-4544-8a9a-18f4763ac63d" x="227.71" y="172.8">ep</tspan><tspan class="eb4a3a28-12c7-4b5a-9943-6d95b60606bc" x="253.39" y="172.8">t</tspan><tspan class="b21865f2-c6a0-4544-8a9a-18f4763ac63d" x="261.19" y="172.8">os himenaeo</tspan><tspan class="efc08f34-74be-4103-bf62-80181e893b1f" x="390.02" y="172.8">s</tspan><tspan x="399.26" y="172.8">.</tspan></text><rect class="fe6813c0-18d9-447d-8e38-c35dfaeb0bac" x="1143.5" y="2356.17" width="505" height="816.55"/><text class="af75b539-8cbb-4017-b514-b97698e4e785" transform="translate(1255.73 2453.69)"><tspan class="fea94ebb-2830-4d64-a3ea-417ba360c56b">M</tspan><tspan x="58.09" y="0">apa X</tspan></text><text class="f4528da7-2402-4b07-b531-c09243474431" transform="translate(1189.24 2555.65)"><tspan class="b62e86ae-004d-40b7-9065-bed970a7e93d">L</tspan><tspan x="10.99" y="0">o</tspan><tspan class="e4310c2d-60dd-44e8-9967-442acb6b72c5" x="24.17" y="0">r</tspan><tspan class="b21865f2-c6a0-4544-8a9a-18f4763ac63d" x="31.78" y="0">em ipsum dolor sit ame</tspan><tspan class="f208c1ef-4367-4fbd-8c3c-dae0f93dd365" x="266.25" y="0">t</tspan><tspan x="274.13" y="0">, </tspan><tspan class="a7f909d8-9274-4b3c-9a12-6bc14fc60f15" x="284.18" y="0">c</tspan><tspan x="294.79" y="0">onse</tspan><tspan class="e037ac66-92c6-4efd-a8a6-8749b5487e0f" x="342.81" y="0">c</tspan><tspan class="a7f909d8-9274-4b3c-9a12-6bc14fc60f15" x="353.88" y="0">t</tspan><tspan class="b21865f2-c6a0-4544-8a9a-18f4763ac63d" x="361.67" y="0">etur </tspan><tspan x="0" y="28.8">adipiscing eli</tspan><tspan class="b0daac1f-ca64-437f-8cd5-c7cfb46addfc" x="130.99" y="28.8">t</tspan><tspan x="138.86" y="28.8">. Nullam pelle</tspan><tspan class="b5a20bc2-bff5-4f9b-af96-e5923b15efec" x="274.96" y="28.8">n</tspan><tspan class="a7f909d8-9274-4b3c-9a12-6bc14fc60f15" x="288.19" y="28.8">t</tspan><tspan class="b21865f2-c6a0-4544-8a9a-18f4763ac63d" x="295.99" y="28.8">esque ut </tspan><tspan x="0" y="57.6">ma</tspan><tspan class="eb4a3a28-12c7-4b5a-9943-6d95b60606bc" x="31.58" y="57.6">g</tspan><tspan x="44.86" y="57.6">na </tspan><tspan class="e4310c2d-60dd-44e8-9967-442acb6b72c5" x="74.83" y="57.6">v</tspan><tspan class="b21865f2-c6a0-4544-8a9a-18f4763ac63d" x="86.13" y="57.6">el finibu</tspan><tspan class="efc08f34-74be-4103-bf62-80181e893b1f" x="167.28" y="57.6">s</tspan><tspan x="176.52" y="57.6">. </tspan><tspan class="bf03f6d5-2878-4e03-a30b-43e09340b459" x="186.57" y="57.6">D</tspan><tspan class="b21865f2-c6a0-4544-8a9a-18f4763ac63d" x="202.65" y="57.6">onec semper </tspan><tspan class="eb4a3a28-12c7-4b5a-9943-6d95b60606bc" x="337.17" y="57.6">c</tspan><tspan class="b21865f2-c6a0-4544-8a9a-18f4763ac63d" x="347.78" y="57.6">ommodo </tspan><tspan x="0" y="86.4">o</tspan><tspan class="e53eb8d2-2dec-4fff-ae07-1ae209c94d49" x="13.18" y="86.4">r</tspan><tspan x="20.78" y="86.4">ci nec po</tspan><tspan class="e5b00239-4c63-49bd-b97d-0370fe10f53f" x="110.25" y="86.4">r</tspan><tspan x="118.68" y="86.4">ta. </tspan><tspan class="ae2f2fde-fd24-41a6-a4ee-d459d6e8b3f2" x="148.25" y="86.4">U</tspan><tspan class="a31f0d96-ea94-4f29-9506-c3a840396f4b" x="163.87" y="86.4">t lao</tspan><tspan class="e53eb8d2-2dec-4fff-ae07-1ae209c94d49" x="207.31" y="86.4">r</tspan><tspan x="214.92" y="86.4">eet dui </tspan><tspan class="e4310c2d-60dd-44e8-9967-442acb6b72c5" x="289.46" y="86.4">v</tspan><tspan x="300.76" y="86.4">el ipsum </tspan><tspan x="0" y="115.2">ult</tspan><tspan class="ae2f2fde-fd24-41a6-a4ee-d459d6e8b3f2" x="26.83" y="115.2">r</tspan><tspan x="34.78" y="115.2">i</tspan><tspan class="eb4a3a28-12c7-4b5a-9943-6d95b60606bc" x="40.39" y="115.2">c</tspan><tspan class="b21865f2-c6a0-4544-8a9a-18f4763ac63d" x="51" y="115.2">e</tspan><tspan class="efc08f34-74be-4103-bf62-80181e893b1f" x="63.02" y="115.2">s</tspan><tspan x="72.26" y="115.2">, ut pha</tspan><tspan class="e53eb8d2-2dec-4fff-ae07-1ae209c94d49" x="147.12" y="115.2">r</tspan><tspan x="154.73" y="115.2">et</tspan><tspan class="ea69f669-c2bc-41f6-b019-6f984237ea32" x="174.69" y="115.2">r</tspan><tspan x="182.42" y="115.2">a le</tspan><tspan class="e037ac66-92c6-4efd-a8a6-8749b5487e0f" x="216.76" y="115.2">c</tspan><tspan class="b21865f2-c6a0-4544-8a9a-18f4763ac63d" x="227.83" y="115.2">tus </tspan><tspan class="eb4a3a28-12c7-4b5a-9943-6d95b60606bc" x="263.59" y="115.2">t</tspan><tspan x="271.39" y="115.2">empo</tspan><tspan class="edc47865-1070-4f74-abef-0f2b1af2ef10" x="330.26" y="115.2">r</tspan><tspan x="336.83" y="115.2">. Class </tspan><tspan x="0" y="144">ap</tspan><tspan class="eb4a3a28-12c7-4b5a-9943-6d95b60606bc" x="25.22" y="144">t</tspan><tspan x="33.02" y="144">e</tspan><tspan class="b5a20bc2-bff5-4f9b-af96-e5923b15efec" x="45.05" y="144">n</tspan><tspan x="58.27" y="144">t taciti sociosqu ad li</tspan><tspan class="a7f909d8-9274-4b3c-9a12-6bc14fc60f15" x="260.85" y="144">t</tspan><tspan x="268.65" y="144">o</tspan><tspan class="ab34c1a6-6904-4f14-8fea-aba6fdabaa83" x="281.83" y="144">r</tspan><tspan x="289.56" y="144">a </tspan><tspan class="a7f909d8-9274-4b3c-9a12-6bc14fc60f15" x="306.21" y="144">t</tspan><tspan class="b21865f2-c6a0-4544-8a9a-18f4763ac63d" x="314.01" y="144">o</tspan><tspan class="e4310c2d-60dd-44e8-9967-442acb6b72c5" x="327.19" y="144">r</tspan><tspan x="334.79" y="144">que</tspan><tspan class="b5a20bc2-bff5-4f9b-af96-e5923b15efec" x="373.55" y="144">n</tspan><tspan class="b21865f2-c6a0-4544-8a9a-18f4763ac63d" x="386.78" y="144">t per </tspan><tspan class="a7f909d8-9274-4b3c-9a12-6bc14fc60f15" x="0" y="172.8">c</tspan><tspan x="10.61" y="172.8">onubia nost</tspan><tspan class="ab34c1a6-6904-4f14-8fea-aba6fdabaa83" x="130.2" y="172.8">r</tspan><tspan class="a31f0d96-ea94-4f29-9506-c3a840396f4b" x="137.93" y="172.8">a, per in</tspan><tspan class="eb4a3a28-12c7-4b5a-9943-6d95b60606bc" x="217.1" y="172.8">c</tspan><tspan class="b21865f2-c6a0-4544-8a9a-18f4763ac63d" x="227.71" y="172.8">ep</tspan><tspan class="eb4a3a28-12c7-4b5a-9943-6d95b60606bc" x="253.39" y="172.8">t</tspan><tspan class="b21865f2-c6a0-4544-8a9a-18f4763ac63d" x="261.19" y="172.8">os himenaeo</tspan><tspan class="efc08f34-74be-4103-bf62-80181e893b1f" x="390.02" y="172.8">s</tspan><tspan x="399.26" y="172.8">.</tspan></text><text class="f4528da7-2402-4b07-b531-c09243474431" transform="translate(1192.24 2824.65)">Dificultad</text><text class="f4528da7-2402-4b07-b531-c09243474431" transform="translate(1194.24 2880.15)">Enemigos</text><text class="f4528da7-2402-4b07-b531-c09243474431" transform="translate(1191.24 2935.65)">E<tspan class="e037ac66-92c6-4efd-a8a6-8749b5487e0f" x="11.81" y="0">x</tspan><tspan class="a31f0d96-ea94-4f29-9506-c3a840396f4b" x="23.23" y="0">t</tspan><tspan class="ab34c1a6-6904-4f14-8fea-aba6fdabaa83" x="31.17" y="0">r</tspan><tspan x="38.9" y="0">as</tspan></text><text class="e845e29c-1748-4c6d-acad-074bb52edd9d" transform="translate(1260.02 3133.87)">PUNT<tspan class="e29fe1c1-4413-4d22-8a41-28d5501d8352" x="113.42" y="0">U</tspan><tspan class="a06f0f17-96a3-4715-b6da-8926d1bf611b" x="143.21" y="0">A</tspan><tspan x="172.22" y="0">CION</tspan></text><rect class="fe6813c0-18d9-447d-8e38-c35dfaeb0bac" x="4589" y="1318.95" width="505" height="816.55"/><text class="af75b539-8cbb-4017-b514-b97698e4e785" transform="translate(4701.23 1416.48)"><tspan class="a8f0a6b8-6f6f-417b-bea2-fae1fddb4731">L</tspan><tspan x="32.85" y="0">e</tspan><tspan class="adbf85d0-6adf-4a8b-be21-78fbf518e2f9" x="68.77" y="0">c</tspan><tspan x="100.47" y="0">ción 1</tspan></text><rect x="4686.5" y="1775" width="310" height="310"/><text class="f4528da7-2402-4b07-b531-c09243474431" transform="translate(4634.74 1518.43)"><tspan class="b62e86ae-004d-40b7-9065-bed970a7e93d">L</tspan><tspan x="10.99" y="0">o</tspan><tspan class="e4310c2d-60dd-44e8-9967-442acb6b72c5" x="24.17" y="0">r</tspan><tspan class="b21865f2-c6a0-4544-8a9a-18f4763ac63d" x="31.78" y="0">em ipsum dolor sit ame</tspan><tspan class="f208c1ef-4367-4fbd-8c3c-dae0f93dd365" x="266.25" y="0">t</tspan><tspan x="274.13" y="0">, </tspan><tspan class="a7f909d8-9274-4b3c-9a12-6bc14fc60f15" x="284.18" y="0">c</tspan><tspan x="294.79" y="0">onse</tspan><tspan class="e037ac66-92c6-4efd-a8a6-8749b5487e0f" x="342.81" y="0">c</tspan><tspan class="a7f909d8-9274-4b3c-9a12-6bc14fc60f15" x="353.88" y="0">t</tspan><tspan class="b21865f2-c6a0-4544-8a9a-18f4763ac63d" x="361.67" y="0">etur </tspan><tspan x="0" y="28.8">adipiscing eli</tspan><tspan class="b0daac1f-ca64-437f-8cd5-c7cfb46addfc" x="130.99" y="28.8">t</tspan><tspan x="138.86" y="28.8">. Nullam pelle</tspan><tspan class="b5a20bc2-bff5-4f9b-af96-e5923b15efec" x="274.96" y="28.8">n</tspan><tspan class="a7f909d8-9274-4b3c-9a12-6bc14fc60f15" x="288.19" y="28.8">t</tspan><tspan class="b21865f2-c6a0-4544-8a9a-18f4763ac63d" x="295.99" y="28.8">esque ut </tspan><tspan x="0" y="57.6">ma</tspan><tspan class="eb4a3a28-12c7-4b5a-9943-6d95b60606bc" x="31.58" y="57.6">g</tspan><tspan x="44.86" y="57.6">na </tspan><tspan class="e4310c2d-60dd-44e8-9967-442acb6b72c5" x="74.83" y="57.6">v</tspan><tspan class="b21865f2-c6a0-4544-8a9a-18f4763ac63d" x="86.13" y="57.6">el finibu</tspan><tspan class="efc08f34-74be-4103-bf62-80181e893b1f" x="167.28" y="57.6">s</tspan><tspan x="176.52" y="57.6">. </tspan><tspan class="bf03f6d5-2878-4e03-a30b-43e09340b459" x="186.57" y="57.6">D</tspan><tspan class="b21865f2-c6a0-4544-8a9a-18f4763ac63d" x="202.65" y="57.6">onec semper </tspan><tspan class="eb4a3a28-12c7-4b5a-9943-6d95b60606bc" x="337.17" y="57.6">c</tspan><tspan class="b21865f2-c6a0-4544-8a9a-18f4763ac63d" x="347.78" y="57.6">ommodo </tspan><tspan x="0" y="86.4">o</tspan><tspan class="e53eb8d2-2dec-4fff-ae07-1ae209c94d49" x="13.18" y="86.4">r</tspan><tspan x="20.78" y="86.4">ci nec po</tspan><tspan class="e5b00239-4c63-49bd-b97d-0370fe10f53f" x="110.25" y="86.4">r</tspan><tspan x="118.68" y="86.4">ta. </tspan><tspan class="ae2f2fde-fd24-41a6-a4ee-d459d6e8b3f2" x="148.25" y="86.4">U</tspan><tspan class="a31f0d96-ea94-4f29-9506-c3a840396f4b" x="163.87" y="86.4">t lao</tspan><tspan class="e53eb8d2-2dec-4fff-ae07-1ae209c94d49" x="207.31" y="86.4">r</tspan><tspan x="214.92" y="86.4">eet dui </tspan><tspan class="e4310c2d-60dd-44e8-9967-442acb6b72c5" x="289.46" y="86.4">v</tspan><tspan x="300.76" y="86.4">el ipsum </tspan><tspan x="0" y="115.2">ult</tspan><tspan class="ae2f2fde-fd24-41a6-a4ee-d459d6e8b3f2" x="26.83" y="115.2">r</tspan><tspan x="34.78" y="115.2">i</tspan><tspan class="eb4a3a28-12c7-4b5a-9943-6d95b60606bc" x="40.39" y="115.2">c</tspan><tspan class="b21865f2-c6a0-4544-8a9a-18f4763ac63d" x="51" y="115.2">e</tspan><tspan class="efc08f34-74be-4103-bf62-80181e893b1f" x="63.02" y="115.2">s</tspan><tspan x="72.26" y="115.2">, ut pha</tspan><tspan class="e53eb8d2-2dec-4fff-ae07-1ae209c94d49" x="147.12" y="115.2">r</tspan><tspan x="154.73" y="115.2">et</tspan><tspan class="ea69f669-c2bc-41f6-b019-6f984237ea32" x="174.69" y="115.2">r</tspan><tspan x="182.42" y="115.2">a le</tspan><tspan class="e037ac66-92c6-4efd-a8a6-8749b5487e0f" x="216.76" y="115.2">c</tspan><tspan class="b21865f2-c6a0-4544-8a9a-18f4763ac63d" x="227.83" y="115.2">tus </tspan><tspan class="eb4a3a28-12c7-4b5a-9943-6d95b60606bc" x="263.59" y="115.2">t</tspan><tspan x="271.39" y="115.2">empo</tspan><tspan class="edc47865-1070-4f74-abef-0f2b1af2ef10" x="330.26" y="115.2">r</tspan><tspan x="336.83" y="115.2">. Class </tspan><tspan x="0" y="144">ap</tspan><tspan class="eb4a3a28-12c7-4b5a-9943-6d95b60606bc" x="25.22" y="144">t</tspan><tspan x="33.02" y="144">e</tspan><tspan class="b5a20bc2-bff5-4f9b-af96-e5923b15efec" x="45.05" y="144">n</tspan><tspan x="58.27" y="144">t taciti sociosqu ad li</tspan><tspan class="a7f909d8-9274-4b3c-9a12-6bc14fc60f15" x="260.85" y="144">t</tspan><tspan x="268.65" y="144">o</tspan><tspan class="ab34c1a6-6904-4f14-8fea-aba6fdabaa83" x="281.83" y="144">r</tspan><tspan x="289.56" y="144">a </tspan><tspan class="a7f909d8-9274-4b3c-9a12-6bc14fc60f15" x="306.21" y="144">t</tspan><tspan class="b21865f2-c6a0-4544-8a9a-18f4763ac63d" x="314.01" y="144">o</tspan><tspan class="e4310c2d-60dd-44e8-9967-442acb6b72c5" x="327.19" y="144">r</tspan><tspan x="334.79" y="144">que</tspan><tspan class="b5a20bc2-bff5-4f9b-af96-e5923b15efec" x="373.55" y="144">n</tspan><tspan class="b21865f2-c6a0-4544-8a9a-18f4763ac63d" x="386.78" y="144">t per </tspan><tspan class="a7f909d8-9274-4b3c-9a12-6bc14fc60f15" x="0" y="172.8">c</tspan><tspan x="10.61" y="172.8">onubia nost</tspan><tspan class="ab34c1a6-6904-4f14-8fea-aba6fdabaa83" x="130.2" y="172.8">r</tspan><tspan class="a31f0d96-ea94-4f29-9506-c3a840396f4b" x="137.93" y="172.8">a, per in</tspan><tspan class="eb4a3a28-12c7-4b5a-9943-6d95b60606bc" x="217.1" y="172.8">c</tspan><tspan class="b21865f2-c6a0-4544-8a9a-18f4763ac63d" x="227.71" y="172.8">ep</tspan><tspan class="eb4a3a28-12c7-4b5a-9943-6d95b60606bc" x="253.39" y="172.8">t</tspan><tspan class="b21865f2-c6a0-4544-8a9a-18f4763ac63d" x="261.19" y="172.8">os himenaeo</tspan><tspan class="efc08f34-74be-4103-bf62-80181e893b1f" x="390.02" y="172.8">s</tspan><tspan x="399.26" y="172.8">.</tspan></text><rect class="fe6813c0-18d9-447d-8e38-c35dfaeb0bac" x="5146" y="1319.95" width="505" height="816.55"/><text class="af75b539-8cbb-4017-b514-b97698e4e785" transform="translate(5258.23 1417.48)"><tspan class="a8f0a6b8-6f6f-417b-bea2-fae1fddb4731">L</tspan><tspan x="32.85" y="0">e</tspan><tspan class="adbf85d0-6adf-4a8b-be21-78fbf518e2f9" x="68.77" y="0">c</tspan><tspan x="100.47" y="0">ción 1</tspan></text><rect x="5243.5" y="1776" width="310" height="310"/><text class="f4528da7-2402-4b07-b531-c09243474431" transform="translate(5191.74 1519.43)"><tspan class="b62e86ae-004d-40b7-9065-bed970a7e93d">L</tspan><tspan x="10.99" y="0">o</tspan><tspan class="e4310c2d-60dd-44e8-9967-442acb6b72c5" x="24.17" y="0">r</tspan><tspan class="b21865f2-c6a0-4544-8a9a-18f4763ac63d" x="31.78" y="0">em ipsum dolor sit ame</tspan><tspan class="f208c1ef-4367-4fbd-8c3c-dae0f93dd365" x="266.25" y="0">t</tspan><tspan x="274.13" y="0">, </tspan><tspan class="a7f909d8-9274-4b3c-9a12-6bc14fc60f15" x="284.18" y="0">c</tspan><tspan x="294.79" y="0">onse</tspan><tspan class="e037ac66-92c6-4efd-a8a6-8749b5487e0f" x="342.81" y="0">c</tspan><tspan class="a7f909d8-9274-4b3c-9a12-6bc14fc60f15" x="353.88" y="0">t</tspan><tspan class="b21865f2-c6a0-4544-8a9a-18f4763ac63d" x="361.67" y="0">etur </tspan><tspan x="0" y="28.8">adipiscing eli</tspan><tspan class="b0daac1f-ca64-437f-8cd5-c7cfb46addfc" x="130.99" y="28.8">t</tspan><tspan x="138.86" y="28.8">. Nullam pelle</tspan><tspan class="b5a20bc2-bff5-4f9b-af96-e5923b15efec" x="274.96" y="28.8">n</tspan><tspan class="a7f909d8-9274-4b3c-9a12-6bc14fc60f15" x="288.19" y="28.8">t</tspan><tspan class="b21865f2-c6a0-4544-8a9a-18f4763ac63d" x="295.99" y="28.8">esque ut </tspan><tspan x="0" y="57.6">ma</tspan><tspan class="eb4a3a28-12c7-4b5a-9943-6d95b60606bc" x="31.58" y="57.6">g</tspan><tspan x="44.86" y="57.6">na </tspan><tspan class="e4310c2d-60dd-44e8-9967-442acb6b72c5" x="74.83" y="57.6">v</tspan><tspan class="b21865f2-c6a0-4544-8a9a-18f4763ac63d" x="86.13" y="57.6">el finibu</tspan><tspan class="efc08f34-74be-4103-bf62-80181e893b1f" x="167.28" y="57.6">s</tspan><tspan x="176.52" y="57.6">. </tspan><tspan class="bf03f6d5-2878-4e03-a30b-43e09340b459" x="186.57" y="57.6">D</tspan><tspan class="b21865f2-c6a0-4544-8a9a-18f4763ac63d" x="202.65" y="57.6">onec semper </tspan><tspan class="eb4a3a28-12c7-4b5a-9943-6d95b60606bc" x="337.17" y="57.6">c</tspan><tspan class="b21865f2-c6a0-4544-8a9a-18f4763ac63d" x="347.78" y="57.6">ommodo </tspan><tspan x="0" y="86.4">o</tspan><tspan class="e53eb8d2-2dec-4fff-ae07-1ae209c94d49" x="13.18" y="86.4">r</tspan><tspan x="20.78" y="86.4">ci nec po</tspan><tspan class="e5b00239-4c63-49bd-b97d-0370fe10f53f" x="110.25" y="86.4">r</tspan><tspan x="118.68" y="86.4">ta. </tspan><tspan class="ae2f2fde-fd24-41a6-a4ee-d459d6e8b3f2" x="148.25" y="86.4">U</tspan><tspan class="a31f0d96-ea94-4f29-9506-c3a840396f4b" x="163.87" y="86.4">t lao</tspan><tspan class="e53eb8d2-2dec-4fff-ae07-1ae209c94d49" x="207.31" y="86.4">r</tspan><tspan x="214.92" y="86.4">eet dui </tspan><tspan class="e4310c2d-60dd-44e8-9967-442acb6b72c5" x="289.46" y="86.4">v</tspan><tspan x="300.76" y="86.4">el ipsum </tspan><tspan x="0" y="115.2">ult</tspan><tspan class="ae2f2fde-fd24-41a6-a4ee-d459d6e8b3f2" x="26.83" y="115.2">r</tspan><tspan x="34.78" y="115.2">i</tspan><tspan class="eb4a3a28-12c7-4b5a-9943-6d95b60606bc" x="40.39" y="115.2">c</tspan><tspan class="b21865f2-c6a0-4544-8a9a-18f4763ac63d" x="51" y="115.2">e</tspan><tspan class="efc08f34-74be-4103-bf62-80181e893b1f" x="63.02" y="115.2">s</tspan><tspan x="72.26" y="115.2">, ut pha</tspan><tspan class="e53eb8d2-2dec-4fff-ae07-1ae209c94d49" x="147.12" y="115.2">r</tspan><tspan x="154.73" y="115.2">et</tspan><tspan class="ea69f669-c2bc-41f6-b019-6f984237ea32" x="174.69" y="115.2">r</tspan><tspan x="182.42" y="115.2">a le</tspan><tspan class="e037ac66-92c6-4efd-a8a6-8749b5487e0f" x="216.76" y="115.2">c</tspan><tspan class="b21865f2-c6a0-4544-8a9a-18f4763ac63d" x="227.83" y="115.2">tus </tspan><tspan class="eb4a3a28-12c7-4b5a-9943-6d95b60606bc" x="263.59" y="115.2">t</tspan><tspan x="271.39" y="115.2">empo</tspan><tspan class="edc47865-1070-4f74-abef-0f2b1af2ef10" x="330.26" y="115.2">r</tspan><tspan x="336.83" y="115.2">. Class </tspan><tspan x="0" y="144">ap</tspan><tspan class="eb4a3a28-12c7-4b5a-9943-6d95b60606bc" x="25.22" y="144">t</tspan><tspan x="33.02" y="144">e</tspan><tspan class="b5a20bc2-bff5-4f9b-af96-e5923b15efec" x="45.05" y="144">n</tspan><tspan x="58.27" y="144">t taciti sociosqu ad li</tspan><tspan class="a7f909d8-9274-4b3c-9a12-6bc14fc60f15" x="260.85" y="144">t</tspan><tspan x="268.65" y="144">o</tspan><tspan class="ab34c1a6-6904-4f14-8fea-aba6fdabaa83" x="281.83" y="144">r</tspan><tspan x="289.56" y="144">a </tspan><tspan class="a7f909d8-9274-4b3c-9a12-6bc14fc60f15" x="306.21" y="144">t</tspan><tspan class="b21865f2-c6a0-4544-8a9a-18f4763ac63d" x="314.01" y="144">o</tspan><tspan class="e4310c2d-60dd-44e8-9967-442acb6b72c5" x="327.19" y="144">r</tspan><tspan x="334.79" y="144">que</tspan><tspan class="b5a20bc2-bff5-4f9b-af96-e5923b15efec" x="373.55" y="144">n</tspan><tspan class="b21865f2-c6a0-4544-8a9a-18f4763ac63d" x="386.78" y="144">t per </tspan><tspan class="a7f909d8-9274-4b3c-9a12-6bc14fc60f15" x="0" y="172.8">c</tspan><tspan x="10.61" y="172.8">onubia nost</tspan><tspan class="ab34c1a6-6904-4f14-8fea-aba6fdabaa83" x="130.2" y="172.8">r</tspan><tspan class="a31f0d96-ea94-4f29-9506-c3a840396f4b" x="137.93" y="172.8">a, per in</tspan><tspan class="eb4a3a28-12c7-4b5a-9943-6d95b60606bc" x="217.1" y="172.8">c</tspan><tspan class="b21865f2-c6a0-4544-8a9a-18f4763ac63d" x="227.71" y="172.8">ep</tspan><tspan class="eb4a3a28-12c7-4b5a-9943-6d95b60606bc" x="253.39" y="172.8">t</tspan><tspan class="b21865f2-c6a0-4544-8a9a-18f4763ac63d" x="261.19" y="172.8">os himenaeo</tspan><tspan class="efc08f34-74be-4103-bf62-80181e893b1f" x="390.02" y="172.8">s</tspan><tspan x="399.26" y="172.8">.</tspan></text><text class="f4528da7-2402-4b07-b531-c09243474431" transform="translate(2002.91 1223.17)">PUNT<tspan class="ee63ffc9-07d0-4df2-b147-e5b426473c69" x="56.02" y="0">U</tspan><tspan class="a6cc5c68-744c-45e8-b1ef-f27f8cf501c6" x="70.73" y="0">A</tspan><tspan class="bb7940a1-c85f-4d4d-ba1b-4a12abcccef4" x="85.06" y="0">CIÓN</tspan></text></svg>